<svg id="Layer_1" enable-background="new 0 0 512.034 512.034" height="512" viewBox="0 0 512.034 512.034" width="512" xmlns="http://www.w3.org/2000/svg"><g><path d="m424.04 0h-336c-26.467 0-48 21.533-48 48 0 472.177-.281 457.238.524 458.847 0 .198.759 1.842 2.08 3.051 1.875 1.706 4.391 2.4 6.77 1.981 1.189-.207-.795.462 40.632-15.318l39.158 14.916c1.834.698 3.861.698 5.696 0l39.151-14.915 39.153 14.915c1.87.712 3.899.685 5.696 0l39.151-14.915 39.15 14.915c1.834.698 3.86.699 5.696 0l39.145-14.915c42.13 16.05 40.235 15.745 43.075 15.359 3.367-.463 5.894-2.93 6.668-5.933.384-1.493.254 12.904.254-211.858 15.652 9.39 15.717 9.871 18.67 9.871 3.017 0 1.983.139 26.669-14.67l22.544 13.53c5.325 3.193 12.117-.643 12.117-6.859v-248.002c.001-26.467-21.532-48-47.999-48zm-84.846 480.524-39.145 14.915-39.15-14.915c-1.834-.698-3.861-.698-5.696 0l-39.151 14.915-39.153-14.915c-1.835-.698-3.861-.698-5.696 0l-39.152 14.916-39.157-14.916c-1.831-.698-3.863-.699-5.695 0l-31.159 11.868v-444.392c0-17.645 14.355-32 32-32h300.236c-6.875 7.666-11.423 17.625-12.216 28.604-.036.498-.021-17.077-.021 447.787l-31.15-11.867c-1.833-.698-3.859-.699-5.695 0zm116.846-198.655-14.543-8.728c-2.535-1.521-5.699-1.521-8.232-.001l-22.555 13.531-18.67-11.201v-227.47c0-8.531 3.322-16.555 9.355-22.6 20.135-20.135 54.645-5.789 54.645 22.6z"/><path d="m216.04 200c-8.822 0-16-7.178-16-16 0-4.418-3.582-8-8-8s-8 3.582-8 8c0 14.884 10.214 27.426 24 30.987v9.013c0 4.418 3.582 8 8 8s8-3.582 8-8v-9.013c13.786-3.561 24-16.104 24-30.987 0-17.645-14.355-32-32-32-8.822 0-16-7.178-16-16s7.178-16 16-16 16 7.178 16 16c0 4.418 3.582 8 8 8s8-3.582 8-8c0-14.884-10.214-27.426-24-30.987v-9.013c0-4.418-3.582-8-8-8s-8 3.582-8 8v9.013c-13.786 3.561-24 16.104-24 30.987 0 17.645 14.355 32 32 32 8.822 0 16 7.178 16 16s-7.177 16-16 16z"/><path d="m344.04 352h-200c-4.418 0-8 3.582-8 8s3.582 8 8 8h200c4.418 0 8-3.582 8-8s-3.582-8-8-8z"/><path d="m344.04 312h-200c-4.418 0-8 3.582-8 8s3.582 8 8 8h200c4.418 0 8-3.582 8-8s-3.582-8-8-8z"/><path d="m144.04 288h200c4.418 0 8-3.582 8-8s-3.582-8-8-8h-200c-4.418 0-8 3.582-8 8s3.582 8 8 8z"/><path d="m288.04 392h-144c-4.418 0-8 3.582-8 8s3.582 8 8 8h144c4.418 0 8-3.582 8-8s-3.582-8-8-8z"/><path d="m104.04 272h-16c-4.418 0-8 3.582-8 8s3.582 8 8 8h16c4.418 0 8-3.582 8-8s-3.581-8-8-8z"/><path d="m104.04 312h-16c-4.418 0-8 3.582-8 8s3.582 8 8 8h16c4.418 0 8-3.582 8-8s-3.581-8-8-8z"/><path d="m104.04 352h-16c-4.418 0-8 3.582-8 8s3.582 8 8 8h16c4.418 0 8-3.582 8-8s-3.581-8-8-8z"/><path d="m104.04 392h-16c-4.418 0-8 3.582-8 8s3.582 8 8 8h16c4.418 0 8-3.582 8-8s-3.581-8-8-8z"/></g></svg>