<?xml version="1.0" encoding="iso-8859-1"?>
<!-- Generator: Adobe Illustrator 19.0.0, SVG Export Plug-In . SVG Version: 6.00 Build 0)  -->
<svg version="1.1" id="Capa_1" xmlns="http://www.w3.org/2000/svg" xmlns:xlink="http://www.w3.org/1999/xlink" x="0px" y="0px"
	 viewBox="0 0 480 480" style="enable-background:new 0 0 480 480;" xml:space="preserve">
<g>
	<path style="fill:#FFA733;" d="M64,268h136v16H64V268z"/>
	<path style="fill:#FFA733;" d="M112,132h224v16H112V132z"/>
	<path style="fill:#FFA733;" d="M144,404h192v16H144V404z"/>
	<path style="fill:#FFA733;" d="M112,340h112v16H112V340z"/>
	<path style="fill:#FFA733;" d="M112,196h112v16H112V196z"/>
</g>
<path style="fill:#FFD422;" d="M336,140c-75.111,0-136,60.889-136,136s60.889,136,136,136s136-60.889,136-136
	c0.053-75.058-60.75-135.947-135.808-136C336.128,140,336.064,140,336,140z"/>
<g>
	<path style="fill:#FFA733;" d="M392,244c0-13.255-10.745-24-24-24h-16v-16h-16v16h-16v-16h-16v16h-16v16h8v80h-8v16h16v16h16v-16
		h16v16h16v-16h16c13.255,0,24-10.745,24-24v-16c-0.021-5.923-2.245-11.627-6.24-16c3.995-4.373,6.219-10.077,6.24-16V244z M376,244
		v16c0,4.418-3.582,8-8,8h-56v-32h56C372.418,236,376,239.582,376,244z M376,308c0,4.418-3.582,8-8,8h-56v-32h56
		c4.418,0,8,3.582,8,8V308z"/>
	<path style="fill:#FFA733;" d="M336,420c-79.529,0-144-64.471-144-144s64.471-144,144-144s144,64.471,144,144
		C479.907,355.491,415.491,419.907,336,420z M336,148c-70.692,0-128,57.308-128,128s57.308,128,128,128s128-57.308,128-128
		C463.916,205.342,406.658,148.084,336,148z"/>
	<path style="fill:#FFA733;" d="M336.104,388H336c-8.758,0.003-17.487-1.018-26.008-3.04l3.696-15.56
		c7.311,1.731,14.799,2.604,22.312,2.6L336.104,388z M353.616,386.624l-2.504-15.792c7.449-1.182,14.731-3.242,21.696-6.136
		l6.144,14.784c-8.14,3.37-16.65,5.768-25.352,7.144L353.616,386.624z M293.256,379.544c-8.14-3.359-15.852-7.672-22.976-12.848
		l9.4-12.936c6.104,4.44,12.709,8.145,19.68,11.04L293.256,379.544z M394.584,371.48l-8.384-13.6
		c6.429-3.954,12.371-8.651,17.704-13.992L415.2,355.2C408.986,361.412,402.067,366.876,394.584,371.48z M256.912,355.304
		c-6.23-6.216-11.71-13.14-16.328-20.632l13.6-8.392c3.969,6.434,8.679,12.382,14.032,17.72L256.912,355.304z M426.632,341.824
		l-12.944-9.424c4.44-6.098,8.145-12.698,11.04-19.664l14.776,6.12C436.132,326.992,431.812,334.701,426.632,341.824
		L426.632,341.824z M232.576,319.056c-3.394-8.128-5.811-16.63-7.2-25.328l15.8-2.52c1.185,7.447,3.25,14.728,6.152,21.688
		L232.576,319.056z M444.936,302.136l-15.568-3.736c1.754-7.337,2.637-14.856,2.632-22.4l11.96-0.32l4.04,0.112
		C448.015,284.663,446.987,293.505,444.936,302.136z M224,276.208V276c-0.005-8.719,1.004-17.41,3.008-25.896l15.576,3.688
		c-1.723,7.277-2.59,14.73-2.584,22.208L224,276.208z M430.768,260.584c-1.2-7.443-3.278-14.718-6.192-21.672l14.76-6.184
		c3.389,8.124,5.806,16.62,7.2,25.312L430.768,260.584z M247.2,239.456l-14.784-6.096c3.346-8.139,7.642-15.854,12.8-22.984
		l12.96,9.376C253.755,225.866,250.071,232.479,247.2,239.456L247.2,239.456z M417.696,225.544
		c-3.977-6.412-8.689-12.337-14.04-17.656l11.272-11.36c6.24,6.205,11.734,13.119,16.368,20.6L417.696,225.544z M267.952,208.288
		l-11.336-11.296c6.206-6.229,13.116-11.714,20.592-16.344l8.424,13.6C279.212,198.223,273.278,202.935,267.952,208.288
		L267.952,208.288z M392.16,198.136c-6.114-4.41-12.728-8.081-19.704-10.936l6.072-14.8c8.148,3.344,15.871,7.64,23.008,12.8
		L392.16,198.136z M299.008,187.392l-6.208-14.768c8.129-3.392,16.631-5.809,25.328-7.2l2.528,15.792
		C313.222,182.417,305.956,184.49,299.008,187.392L299.008,187.392z M358.128,182.552c-7.253-1.698-14.678-2.554-22.128-2.552
		l-0.32-16H336c8.68-0.001,17.332,0.997,25.784,2.976L358.128,182.552z"/>
	<path style="fill:#FFA733;" d="M0,268h48v16H0V268z"/>
	<path style="fill:#FFA733;" d="M64,132h32v16H64V132z"/>
	<path style="fill:#FFA733;" d="M96,404h32v16H96V404z"/>
	<path style="fill:#FFA733;" d="M80,340h16v16H80V340z"/>
	<path style="fill:#FFA733;" d="M32,340h32v16H32V340z"/>
	<path style="fill:#FFA733;" d="M80,196h16v16H80V196z"/>
	<path style="fill:#FFA733;" d="M32,132h16v16H32V132z"/>
</g>
<g>
	<path style="fill:#FF9811;" d="M224,4c0,0,0,40,40,40c0,0-40,0-40,40c0,0,0-40-40-40C184,44,224,44,224,4z"/>
	<path style="fill:#FF9811;" d="M424,52c0,0,0,40,40,40c0,0-40,0-40,40c0,0,0-40-40-40C384,92,424,92,424,52z"/>
	<path style="fill:#FF9811;" d="M48,396c0,0,0,40,40,40c0,0-40,0-40,40c0,0,0-40-40-40C8,436,48,436,48,396z"/>
</g>
<g>
</g>
<g>
</g>
<g>
</g>
<g>
</g>
<g>
</g>
<g>
</g>
<g>
</g>
<g>
</g>
<g>
</g>
<g>
</g>
<g>
</g>
<g>
</g>
<g>
</g>
<g>
</g>
<g>
</g>
</svg>
