<svg id="Capa_1" enable-background="new 0 0 511.994 511.994" height="512" viewBox="0 0 511.994 511.994" width="512" xmlns="http://www.w3.org/2000/svg"><g><g><g><g><g><path d="m348.552 396.794-39.919-86.393-69.918 69.917 63.157 63.157z" fill="#8dc637"/><path d="m348.554 396.79-25.08 25.08-39.921-86.389 25.08-25.08z" fill="#82b732"/><g><path d="m288.465 473.441c-6.696-6.696-6.696-17.552 0-24.247l62.232-62.232c6.696-6.696 17.552-6.696 24.247 0 6.696 6.696 6.696 17.552 0 24.247l-62.232 62.232c-6.696 6.696-17.552 6.696-24.247 0z" fill="#bcea73"/></g></g><g><path d="m120.383 168.625 86.393 39.919-69.917 69.918-63.156-63.157z" fill="#8dc637"/><path d="m206.778 208.547-25.08 25.08-86.4-39.921 25.08-25.08z" fill="#82b732"/><g><path d="m43.736 228.712c6.696 6.696 17.552 6.696 24.247 0l62.232-62.232c6.696-6.696 6.696-17.552 0-24.247-6.696-6.696-17.552-6.696-24.247 0l-62.232 62.232c-6.696 6.696-6.696 17.552 0 24.247z" fill="#bcea73"/></g></g></g><g><path d="m201.389 395.814c4.197 4.197 10.487 5.573 16.014 3.406 41.657-16.333 83.03-43.089 119.487-79.546 67.952-67.952 102.291-152.979 98.018-225.089-.392-6.612-5.699-11.92-12.311-12.312-72.117-4.283-157.134 30.046-225.099 98.01-36.46 36.46-63.217 77.83-79.549 119.484-2.167 5.526-.791 11.816 3.406 16.014z" fill="#f8f3f1"/><path d="m336.895 319.678c-36.459 36.459-77.829 63.212-119.496 79.54-5.526 2.165-11.815.79-16.011-3.407l-22.938-22.938c44.737-15.889 89.529-43.84 128.664-82.976 62.633-62.633 96.718-139.774 98.323-207.924 5.789-.131 11.522-.037 17.161.299 6.614.394 11.921 5.71 12.312 12.324 4.273 72.106-30.064 157.131-98.015 225.082z" fill="#f3eae6"/><path d="m245.154 386.756c-9.205 4.668-18.475 8.822-27.755 12.463-5.527 2.166-11.81.793-16.011-3.408l-80.035-80.035c-4.192-4.192-5.573-10.484-3.408-16.011 3.641-9.28 7.795-18.55 12.463-27.755z" fill="#b9acac"/><path d="m245.154 386.756c-9.205 4.668-18.475 8.822-27.755 12.463-5.527 2.166-11.81.793-16.011-3.408l-22.938-22.938c12.351-4.378 24.693-9.681 36.923-15.899z" fill="#9e9797"/><path d="m424.006 178.55c-20.949-2.633-41.217-11.996-57.302-28.082s-25.449-36.353-28.082-57.302c28.764-8.765 57.284-12.489 84.025-10.889 6.58.394 11.871 5.687 12.261 12.267 1.586 26.726-2.138 55.245-10.902 84.006z" fill="#a8e7ef"/><path d="m424.006 178.55c-12.454-1.568-24.665-5.508-35.896-11.828 10.829-28.679 16.683-57.442 17.327-84.749 5.807-.131 11.548-.028 17.206.308 6.582.383 11.875 5.676 12.267 12.267 1.587 26.719-2.138 55.239-10.904 84.002z" fill="#70d9e6"/></g><g><path d="m265.93 187.819c17.515-17.515 45.912-17.515 63.427 0s17.515 45.912 0 63.427-45.912 17.515-63.427 0-17.514-45.912 0-63.427" fill="#31a7fb"/><path d="m254.23 230.777c15.318 9.58 35.738 7.71 49.057-5.608 13.304-13.304 15.203-33.724 5.623-49.043 7.493 1.927 14.579 5.826 20.449 11.695 17.507 17.507 17.507 45.912 0 63.419-17.521 17.521-45.927 17.521-63.434.014-5.869-5.868-9.782-12.97-11.695-20.477" fill="#1c96f9"/></g><g><path d="m118.137 399.04c-6.696-6.696-6.696-17.552 0-24.247l62.232-62.232c6.696-6.696 17.552-6.696 24.247 0 6.696 6.696 6.696 17.552 0 24.247l-62.232 62.232c-6.695 6.695-17.551 6.695-24.247 0z" fill="#bcea73"/></g></g><g><path d="m205.091 64.378c0-16.628 13.48-30.108 30.108-30.108s30.108 13.48 30.108 30.108-13.48 30.108-30.108 30.108-30.108-13.479-30.108-30.108" fill="#64b9fc"/><path d="m219.928 90.324c11.819-2.724 20.625-13.305 20.625-25.949 0-12.631-8.792-23.225-20.611-25.949 4.472-2.642 9.686-4.155 15.259-4.155 16.621 0 30.104 13.484 30.104 30.105 0 16.634-13.484 30.118-30.104 30.118-5.573-.001-10.801-1.515-15.273-4.17" fill="#31a7fb"/><g><circle cx="144.775" cy="66.911" fill="#a8e7ef" r="21.595"/><path d="m166.368 66.908c0 11.931-9.671 21.602-21.593 21.602-3.997 0-7.747-1.086-10.954-2.99 8.477-1.954 14.793-9.543 14.793-18.612 0-9.06-6.306-16.658-14.783-18.612 3.207-1.895 6.947-2.98 10.944-2.98 11.922-.001 21.593 9.671 21.593 21.592z" fill="#70d9e6"/></g></g><g><circle cx="96.682" cy="479.863" fill="#bcea73" r="24.631"/><path d="m121.312 479.86c0 13.608-11.031 24.639-24.628 24.639-4.559 0-8.836-1.238-12.494-3.411 9.669-2.229 16.873-10.885 16.873-21.229 0-10.333-7.193-19-16.862-21.229 3.658-2.161 7.924-3.399 12.483-3.399 13.597.001 24.628 11.032 24.628 24.629z" fill="#99d53b"/></g><g><circle cx="448.638" cy="336.12" fill="#bcea73" r="24.631"/><path d="m473.267 336.117c0 13.608-11.031 24.639-24.628 24.639-4.559 0-8.836-1.238-12.494-3.411 9.669-2.229 16.873-10.885 16.873-21.229 0-10.333-7.193-19-16.862-21.229 3.658-2.161 7.924-3.399 12.483-3.399 13.597.001 24.628 11.032 24.628 24.629z" fill="#99d53b"/></g></g><g><path d="m362.82 374.44c-5.176 0-10.105 1.592-14.24 4.532l-19.268-41.7c4.375-3.989 8.673-8.086 12.882-12.296 67.318-67.319 104.777-153.613 100.202-230.835-.617-10.416-8.938-18.737-19.354-19.356-41.346-2.46-86.338 7.308-130.119 28.234-3.737 1.786-5.318 6.264-3.532 10.001s6.267 5.321 10.001 3.532c11.056-5.284 22.18-9.811 33.285-13.576 4.23 20.014 14.053 38.123 28.725 52.795 14.675 14.675 32.795 24.479 52.813 28.705-2.399 7.097-5.11 14.195-8.128 21.267-16.624 38.95-42.386 76.512-74.499 108.626-25.636 25.636-54.575 47.097-85.017 63.194l-36.081-36.081c9.012-9.65 8.839-24.819-.568-34.226-4.655-4.655-10.844-7.219-17.427-7.219-6.3 0-12.235 2.354-16.814 6.635l-36.073-36.073c16.096-30.438 37.558-59.377 63.196-85.015 19.885-19.885 41.71-37.26 64.869-51.645 3.519-2.186 4.6-6.81 2.414-10.328-2.185-3.519-6.809-4.599-10.328-2.414-24.134 14.99-46.865 33.084-67.562 53.78-4.21 4.21-8.307 8.509-12.297 12.884l-41.716-19.276c6.816-9.616 5.945-23.049-2.664-31.657-9.609-9.609-25.244-9.609-34.854 0l-62.232 62.232c-9.608 9.609-9.608 25.245 0 34.854v.001c4.805 4.804 11.116 7.206 17.427 7.206 6.312 0 12.623-2.402 17.427-7.207l4.26-4.26 43.76 43.76c-3.784 7.765-7.24 15.611-10.339 23.514-3.245 8.278-1.249 17.719 5.085 24.054l22.594 22.594-25.812 25.812c-4.655 4.655-7.219 10.844-7.219 17.427s2.563 12.772 7.219 17.427c4.805 4.804 11.116 7.206 17.427 7.206 6.312 0 12.623-2.402 17.427-7.207l25.812-25.812 22.586 22.586c4.318 4.318 10.08 6.621 15.934 6.621 2.733 0 5.485-.502 8.121-1.535 7.904-3.099 15.75-6.555 23.515-10.338l43.767 43.767-4.259 4.26c-4.655 4.655-7.22 10.844-7.22 17.427s2.564 12.772 7.219 17.427 10.844 7.219 17.427 7.219 12.771-2.563 17.428-7.219l15.839-15.839c2.929-2.929 2.929-7.678 0-10.606-2.93-2.929-7.678-2.929-10.607 0l-15.838 15.838c-1.822 1.822-4.245 2.826-6.821 2.826s-4.998-1.003-6.82-2.826c-1.821-1.821-2.825-4.244-2.825-6.82s1.004-4.998 2.826-6.82l62.226-62.232c1.821-1.822 4.243-2.825 6.819-2.825 2.577 0 4.999 1.003 6.821 2.826 1.821 1.822 2.825 4.244 2.825 6.82s-1.004 4.999-2.826 6.82l-20.211 20.211c-2.929 2.929-2.929 7.678 0 10.606 2.93 2.929 7.678 2.929 10.607 0l20.21-20.211c4.655-4.655 7.22-10.844 7.22-17.427s-2.564-12.772-7.219-17.427c-4.654-4.654-10.842-7.218-17.426-7.218zm9.187-229.274c-12.921-12.921-21.447-28.947-24.917-46.65 25.687-7.18 51.069-10.182 75.062-8.757 2.837.168 5.102 2.434 5.27 5.27 1.415 23.867-1.598 49.327-8.771 75.053-17.701-3.471-33.725-11.998-46.644-24.916zm-322.968 78.243c-3.76-3.761-3.76-9.88 0-13.641l62.232-62.232c1.88-1.88 4.351-2.82 6.82-2.82 2.47 0 4.94.94 6.821 2.82 3.761 3.761 3.761 9.88 0 13.641l-62.232 62.232c-3.761 3.761-9.88 3.761-13.641 0zm78.206-43.352 42.351 19.569c-15.855 18.875-29.66 39.022-41.065 59.901l-40.379-40.379zm-.586 130.42c-2.118-2.118-2.795-5.247-1.727-7.972 2.333-5.95 4.882-11.866 7.626-17.739l32.5 32.5-15.805 15.805zm10.423 83.259c-3.761 3.761-9.881 3.76-13.641 0-3.761-3.761-3.761-9.88 0-13.641l62.232-62.232c3.761-3.76 9.88-3.761 13.641 0s3.761 9.88 0 13.641zm77.583-1.498c-2.725 1.068-5.855.39-7.973-1.727l-22.586-22.586 15.805-15.805 32.492 32.492c-5.872 2.743-11.788 5.293-17.738 7.626zm42.978-3.599c20.881-11.405 41.03-25.21 59.905-41.064l19.572 42.358-39.091 39.091z"/><path d="m284.486 254.486c-3.878-1.454-8.202.506-9.659 4.384-1.456 3.877.507 8.202 4.384 9.658 5.978 2.245 12.201 3.335 18.379 3.335 13.664 0 27.095-5.336 37.072-15.313 20.41-20.412 20.41-53.623 0-74.034-9.888-9.888-23.034-15.333-37.018-15.333-13.982 0-27.129 5.445-37.016 15.333-14.411 14.41-19.147 36.082-12.068 55.212 1.437 3.884 5.749 5.868 9.637 4.431 3.885-1.438 5.868-5.752 4.431-9.637-5.053-13.653-1.674-29.119 8.607-39.399 7.054-7.055 16.434-10.939 26.409-10.939 9.977 0 19.356 3.885 26.41 10.939 14.563 14.563 14.563 38.258.001 52.82-10.338 10.336-25.873 13.688-39.569 8.543z"/><path d="m235.199 101.987c20.737 0 37.608-16.871 37.608-37.608s-16.87-37.609-37.608-37.609-37.608 16.871-37.608 37.608 16.871 37.609 37.608 37.609zm0-60.217c12.466 0 22.608 10.142 22.608 22.608s-10.142 22.608-22.608 22.608-22.608-10.142-22.608-22.608 10.142-22.608 22.608-22.608z"/><path d="m144.775 96.006c16.043 0 29.095-13.052 29.095-29.095s-13.052-29.095-29.095-29.095-29.095 13.052-29.095 29.095 13.052 29.095 29.095 29.095zm0-43.191c7.772 0 14.095 6.323 14.095 14.095s-6.323 14.095-14.095 14.095-14.095-6.323-14.095-14.095 6.323-14.095 14.095-14.095z"/><path d="m199.996 442.186c-2.929-2.929-7.678-2.929-10.606 0l-6.608 6.608-6.608-6.608c-2.928-2.929-7.677-2.929-10.606 0s-2.929 7.678 0 10.606l6.608 6.608-6.608 6.608c-2.929 2.929-2.929 7.678 0 10.606 1.464 1.464 3.384 2.197 5.303 2.197s3.839-.732 5.303-2.197l6.608-6.608 6.608 6.608c1.464 1.465 3.384 2.197 5.303 2.197s3.839-.732 5.303-2.197c2.929-2.929 2.929-7.678 0-10.606l-6.608-6.608 6.608-6.608c2.93-2.928 2.93-7.677 0-10.606z"/><path d="m71.088 33.739c1.464 1.464 3.384 2.197 5.303 2.197s3.839-.732 5.303-2.197l5.165-5.165 5.165 5.165c1.464 1.464 3.384 2.197 5.303 2.197s3.839-.732 5.303-2.197c2.929-2.929 2.929-7.678 0-10.606l-5.165-5.165 5.165-5.165c2.929-2.929 2.929-7.678 0-10.606-2.929-2.929-7.678-2.929-10.606 0l-5.165 5.165-5.165-5.165c-2.929-2.929-7.678-2.929-10.606 0-2.929 2.929-2.929 7.678 0 10.606l5.165 5.165-5.165 5.165c-2.929 2.928-2.929 7.677 0 10.606z"/><path d="m96.682 447.732c-17.717 0-32.131 14.414-32.131 32.131s14.414 32.131 32.131 32.131 32.131-14.414 32.131-32.131-14.413-32.131-32.131-32.131zm0 49.262c-9.446 0-17.131-7.685-17.131-17.131s7.685-17.131 17.131-17.131 17.131 7.685 17.131 17.131-7.684 17.131-17.131 17.131z"/><path d="m448.638 303.989c-17.718 0-32.132 14.414-32.132 32.131s14.414 32.131 32.132 32.131c17.717 0 32.131-14.414 32.131-32.131s-14.414-32.131-32.131-32.131zm0 49.263c-9.446 0-17.132-7.685-17.132-17.131s7.686-17.131 17.132-17.131 17.131 7.685 17.131 17.131-7.685 17.131-17.131 17.131z"/></g></g></svg>